# xmcd
# 
# Track frame offsets:
#     150
#     18270
#     36180
#     53190
#     70268
# 
# Disc length: 1245
# 
# Revision: 0
# Processed by: cddbd v1.5.2PL0 Copyright (c) Steve Scherf et al.
# Submitted via: BonkEnc v1.0
# 
DISCID=3b04db05
DTITLE=Sister Shotgun - Devour
DYEAR=2016
DGENRE=Rock
TTITLE0=1. From The Ashes
TTITLE1=2. Overcome
TTITLE2=3. Scarlett Visions
TTITLE3=4. Miss Fortune
TTITLE4=5. Silhouettes
EXTD=
EXTT0=
EXTT1=
EXTT2=
EXTT3=
EXTT4=
PLAYORDER=
